<svg xmlns="http://www.w3.org/2000/svg" xmlns:xlink="http://www.w3.org/1999/xlink" width="500" zoomAndPan="magnify" viewBox="0 0 375 374.999991" height="500" preserveAspectRatio="xMidYMid meet" version="1.2"><defs><clipPath id="ae8aab7314"><path d="M 23.523438 0 L 351.273438 0 L 351.273438 375 L 23.523438 375 Z M 23.523438 0 "/></clipPath></defs><g id="d608839142"><g clip-rule="nonzero" clip-path="url(#ae8aab7314)"><path style=" stroke:none;fill-rule:evenodd;fill:#000000;fill-opacity:1;" d="M 155.609375 36.414062 C 147.089844 45.300781 140.578125 59.703125 140.578125 81.082031 L 140.578125 105.511719 L 234.21875 105.511719 L 234.21875 81.082031 C 234.21875 42.398438 209.664062 24.113281 187.101562 23.539062 C 175.566406 23.246094 164.171875 27.480469 155.609375 36.414062 Z M 257.628906 105.511719 L 257.628906 81.082031 C 257.628906 30.40625 223.65625 1.039062 187.695312 0.121094 C 169.96875 -0.328125 152.097656 6.234375 138.710938 20.199219 C 125.285156 34.207031 117.164062 54.804688 117.164062 81.082031 L 117.164062 105.511719 L 23.523438 105.511719 L 23.523438 316.335938 C 23.523438 348.679688 49.726562 374.898438 82.050781 374.898438 L 292.746094 374.898438 C 325.070312 374.898438 351.273438 348.679688 351.273438 316.335938 L 351.273438 105.511719 Z M 234.21875 128.9375 L 234.21875 140.648438 L 257.628906 140.648438 L 257.628906 128.9375 L 327.863281 128.9375 L 327.863281 316.335938 C 327.863281 335.742188 312.140625 351.472656 292.746094 351.472656 L 82.050781 351.472656 C 62.65625 351.472656 46.933594 335.742188 46.933594 316.335938 L 46.933594 128.9375 L 117.164062 128.9375 L 117.164062 140.648438 L 140.578125 140.648438 L 140.578125 128.9375 Z M 234.21875 128.9375 "/></g></g></svg>